<?xml version="1.0" encoding="utf-8"?>
<!-- Generator: Adobe Illustrator 21.1.0, SVG Export Plug-In . SVG Version: 6.00 Build 0)  -->
<svg version="1.1" id="Layer_1" xmlns="http://www.w3.org/2000/svg" xmlns:xlink="http://www.w3.org/1999/xlink" x="0px" y="0px"
	 viewBox="0 0 176 50" style="enable-background:new 0 0 176 50;" xml:space="preserve">
<style type="text/css">
	.st0{fill:#FFFFFF;}
</style>
<g>
	<g>
		<path class="st0" d="M33.9,0C20.7,0,10,10.1,8.9,23l13.4,5.5c1.1-0.8,2.5-1.2,4-1.2c0.1,0,0.3,0,0.4,0l6-8.6c0,0,0-0.1,0-0.1
			c0-5.2,4.2-9.4,9.4-9.4c5.2,0,9.4,4.2,9.4,9.4c0,5.2-4.2,9.4-9.4,9.4c-0.1,0-0.1,0-0.2,0L33.4,34c0,0.1,0,0.2,0,0.3
			c0,3.9-3.2,7.1-7.1,7.1c-3.4,0-6.3-2.4-6.9-5.7l-9.6-4C12.8,42.3,22.4,50,33.9,50c13.8,0,25-11.2,25-25C58.9,11.2,47.7,0,33.9,0z"
			/>
		<path class="st0" d="M24.6,37.9l-3.1-1.3c0.5,1.1,1.5,2.1,2.7,2.6c2.7,1.1,5.8-0.2,6.9-2.9c0.5-1.3,0.5-2.8,0-4.1
			c-0.5-1.3-1.6-2.3-2.9-2.9c-1.3-0.5-2.7-0.5-3.9-0.1l3.2,1.3c2,0.8,2.9,3.1,2.1,5.1C28.9,37.8,26.6,38.8,24.6,37.9z"/>
		<path class="st0" d="M48.4,18.6c0-3.5-2.8-6.3-6.3-6.3c-3.5,0-6.3,2.8-6.3,6.3c0,3.5,2.8,6.3,6.3,6.3C45.6,24.8,48.4,22,48.4,18.6
			z M37.4,18.5c0-2.6,2.1-4.7,4.7-4.7c2.6,0,4.7,2.1,4.7,4.7c0,2.6-2.1,4.7-4.7,4.7C39.5,23.3,37.4,21.2,37.4,18.5z"/>
	</g>
	<g>
		<path class="st0" d="M85.6,17.1L83.9,20c-1.3-0.9-3-1.4-4.6-1.4c-1.7,0-2.8,0.7-2.8,2c0,1.6,1.9,1.9,4.8,3
			c3.1,1.1,4.8,2.4,4.8,5.2c0,3.8-3,6-7.4,6c-2.1,0-4.7-0.5-6.6-1.7l1.2-3.3c1.6,0.8,3.5,1.3,5.2,1.3c2.3,0,3.4-0.8,3.4-2.1
			c0-1.4-1.7-1.9-4.3-2.7c-3.1-1-5.2-2.4-5.2-5.5c0-3.5,2.8-5.5,6.8-5.5C82,15.3,84.3,16.2,85.6,17.1z"/>
		<path class="st0" d="M98.7,19v15.5h-3.9V19H89v-3.4h15.4V19H98.7z"/>
		<path class="st0" d="M112.7,19v4.2h7.5v3.4h-7.5V31h8.8v3.4h-12.7V15.6h12.7V19H112.7z"/>
		<path class="st0" d="M130.2,30.8l-1.2,3.7h-4.1l7.1-18.8h4l7.3,18.8h-4.3l-1.3-3.7H130.2z M133.9,20.1l-2.6,7.5h5.2L133.9,20.1z"
			/>
		<path class="st0" d="M163.4,22.9l-5.2,11H156L150.9,23v11.5h-3.8V15.6h3.8l6.3,13.6l6.1-13.6h3.8v18.8h-3.8L163.4,22.9z"/>
		<path class="st0" d="M174.8,18c0,1.6-1.2,2.6-2.6,2.6c-1.4,0-2.6-1-2.6-2.6c0-1.6,1.2-2.6,2.6-2.6C173.6,15.3,174.8,16.3,174.8,18
			z M170,18c0,1.4,1,2.2,2.2,2.2c1.2,0,2.2-0.9,2.2-2.2c0-1.4-1-2.2-2.2-2.2C171,15.8,170,16.6,170,18z M172.2,16.6
			c0.7,0,0.9,0.4,0.9,0.7c0,0.4-0.2,0.6-0.5,0.7l0.6,1.1h-0.5l-0.5-1h-0.5v1h-0.4v-2.6H172.2z M171.7,17.8h0.5
			c0.3,0,0.5-0.2,0.5-0.4c0-0.2-0.1-0.4-0.5-0.4h-0.5V17.8z"/>
	</g>
</g>
</svg>
